<svg width="418" height="549" viewBox="0 0 418 549" fill="none" xmlns="http://www.w3.org/2000/svg">
<path d="M303.648 7.96558L303.653 7.96469C306.891 7.37021 316.943 6.82257 326.739 6.60178C328.308 6.56641 329.845 6.53995 331.316 6.52289C321.64 17.121 316.394 25.3916 312.579 36.6723C308.533 48.5503 307.076 60.3655 307.749 74.7401L307.75 74.7505C308.887 98.2397 316.043 118.825 335.687 158.237C358.779 204.773 365.329 223.752 368.412 251.868L368.414 251.89L368.417 251.911C369.312 259.598 369.205 262.51 367.957 268.955L367.949 268.994L367.942 269.034C364.075 290.4 357.237 305.577 349.44 313.322L349.413 313.349L349.386 313.377C346.436 316.378 339.188 322.323 332.275 327.597C330.929 328.623 329.62 329.606 328.383 330.519C328.334 329.09 328.286 327.539 328.238 325.875C327.959 316.215 327.692 302.931 327.478 288.378C327.158 259.301 326.517 228.542 326.082 220.077C326.081 220.067 326.08 220.057 326.08 220.047L325.441 205.204L325.173 198.983H318.947H300.341H281.627H275.058L275.128 205.553L275.769 265.578C275.769 265.58 275.769 265.582 275.769 265.584M303.648 7.96558L283.552 347.95C283.231 335.661 282.59 298.576 282.269 265.515L275.769 265.584M303.648 7.96558C276.791 12.876 248.317 30.0201 226.763 54.8774L226.754 54.8871L226.746 54.8967C209.494 74.6357 193.374 104.169 180.495 140.242L180.49 140.256L180.485 140.27C177.449 148.651 173.742 158.007 170.635 165.293C169.086 168.925 167.653 172.121 166.506 174.451C165.944 175.593 165.383 176.664 164.867 177.509C164.626 177.905 164.269 178.458 163.825 178.986C163.613 179.238 163.211 179.689 162.637 180.13C162.238 180.436 160.764 181.533 158.548 181.533C156.253 181.533 154.708 180.373 153.99 179.668C153.288 178.979 152.912 178.293 152.753 177.983C152.423 177.336 152.281 176.782 152.241 176.628C152.137 176.223 152.094 175.887 152.082 175.792L152.081 175.79C152.047 175.528 152.03 175.285 152.022 175.152C152.001 174.843 151.986 174.462 151.973 174.064C151.946 173.244 151.921 172.097 151.901 170.724C151.861 167.971 151.834 164.196 151.834 160.048C151.781 151.925 151.409 146.428 150.459 141.595C149.522 136.832 147.971 132.454 145.276 126.661L145.275 126.66C143.593 123.044 140.176 118.411 135.348 113.312C130.595 108.291 124.773 103.13 118.642 98.4403C112.507 93.7478 106.181 89.6176 100.448 86.6071C94.5524 83.5109 89.8833 81.9201 86.9051 81.6755L86.8888 81.6742L86.8726 81.6728C85.2082 81.5277 83.6709 81.583 82.2761 81.8055M303.648 7.96558L82.2761 81.8055M275.769 265.584C276.09 298.662 276.732 335.782 277.054 348.119L277.055 348.128L277.055 348.137L277.584 366.537L251.138 381.673L251.131 381.677L230.873 393.238L230.382 372.483L230.382 372.478C229.955 355.019 229.528 322.978 229.314 301.124C229.314 301.123 229.314 301.123 229.314 301.122L228.993 261.439L228.941 254.991H222.493H203.78C196.688 254.991 191.795 255.07 188.623 255.292C187.099 255.399 185.594 255.56 184.336 255.882C183.742 256.033 182.732 256.334 181.72 256.979C180.686 257.639 178.81 259.239 178.498 262.09L178.499 262.09C178.446 262.593 178.442 263.161 178.441 263.204C178.434 263.55 178.427 264.018 178.42 264.592C178.407 265.745 178.393 267.387 178.38 269.458C178.353 273.601 178.326 279.498 178.3 286.711C178.246 301.139 178.193 320.854 178.139 342.387L178.139 342.394L178.038 416.366L153.42 427.986L153.412 427.99C145.656 431.664 138.536 434.894 133.329 437.14C133.243 437.177 133.157 437.214 133.072 437.251C133.008 434.637 132.946 431.505 132.886 427.937C132.7 416.796 132.54 401.517 132.433 384.784C132.433 384.781 132.433 384.778 132.433 384.775L132.219 324.001L132.196 317.524H125.719H107.006H88.2925H81.8122L81.7925 324.004L81.5787 394.358L81.5787 394.367L81.2752 461.034L70.3676 467.122L70.3511 467.132L70.3346 467.141L59.1914 473.446L58.6424 473.159C54.8063 471.044 49.82 466.665 44.181 460.016C38.6012 453.436 32.6893 445 26.956 435.247L26.9515 435.239L26.9469 435.232C11.4473 409.029 4.33459 378.426 7.07624 350.543L7.07752 350.53L7.07875 350.517C10.9119 309.847 20.895 282.387 57.0159 215.309M275.769 265.584L82.2761 81.8055M82.2761 81.8055C88.8652 92.3919 91.6454 101.929 92.3255 115.992C93.6011 141.85 86.2331 161.086 57.0159 215.309M57.0159 215.309L51.2937 212.226M57.0159 215.309L51.2937 212.226M59.3137 480.846L73.5358 472.798L87.7578 464.859L88.0786 394.387L88.2925 324.024H107.006H125.719L125.933 384.817C126.085 408.708 126.347 429.666 126.639 439.88L79.404 82.5667L75.927 83.9331L76.5299 84.8763C82.6251 94.5553 85.1915 103.038 85.833 116.306C87.0093 140.123 80.5933 157.85 51.2937 212.226M59.3137 480.846L55.571 478.888M59.3137 480.846L56.8669 476.522M59.3137 480.846L56.8669 476.522M55.571 478.888C45.8401 473.559 33.1151 458.551 21.3524 438.541C5.20555 411.244 -2.27976 379.27 0.607432 349.907C4.56395 307.929 15.0434 279.544 51.2937 212.226M55.571 478.888L56.8669 476.522M55.571 478.888L56.8367 476.468L56.1125 475.189L58.0918 474.069L56.8669 476.522M254.359 387.318L284.194 370.244L231.047 400.622L254.359 387.318ZM223.884 372.637L224.457 396.899L133.304 444.216C138.696 441.955 147.021 438.21 156.195 433.864L184.532 420.488L184.639 342.403C184.746 299.337 184.853 263.557 184.96 262.796C185.067 261.817 189.558 261.491 203.78 261.491H222.493L222.814 301.186C223.028 323.045 223.456 355.127 223.884 372.637ZM127.002 446.48C127.176 446.656 129.443 445.831 133.119 444.293C133.013 443.979 132.604 442.906 131.637 441.923C129.851 440.106 127.704 440.023 127.414 440.011C127.406 440.011 127.398 440.011 127.393 440.01C127.1 439.996 126.843 440.005 126.643 440.021C126.76 444.04 126.881 446.356 127.002 446.48Z" fill="#FF4318" stroke="#B05035" stroke-width="13"/>
<path d="M397.654 298.252L397.647 298.26L397.64 298.268C319.561 388.234 204.754 459.394 86.7575 490.824L86.7486 490.827C85.5471 491.145 84.3627 491.458 83.2066 491.764C81.173 492.302 79.2266 492.818 77.4269 493.295C79.113 494.595 81.0099 496.011 83.0599 497.498C92.1175 504.068 103.547 511.585 111.709 516.023C156.842 540.453 206.4 548.214 254.328 538.318L254.339 538.316C287.189 531.592 322.191 513.86 347.773 491.108C397.642 446.582 420.68 376.394 407.418 308.418C406.556 304.093 404.98 297.904 403.449 292.605C403.385 292.384 403.321 292.166 403.258 291.95C401.55 293.808 399.638 295.95 397.654 298.252Z" fill="#FF4318" stroke="#B05035" stroke-width="13"/>
</svg>
